<?xml version="1.0" encoding="utf-8"?><!-- Uploaded to: SVG Repo, www.svgrepo.com, Generator: SVG Repo Mixer Tools -->
<svg fill="#000000" width="800px" height="800px" viewBox="0 0 24 24" id="sunrise-2" data-name="Flat Color" xmlns="http://www.w3.org/2000/svg" class="icon flat-color"><circle id="primary" cx="12" cy="12" r="5" style="fill: rgb(0, 0, 0);"></circle><path id="secondary" d="M18,21H6a1,1,0,0,1,0-2H18a1,1,0,0,1,0,2Zm3-4H3a1,1,0,0,1,0-2H21a1,1,0,0,1,0,2Zm0-4H20a1,1,0,0,1,0-2h1a1,1,0,0,1,0,2ZM4,13H3a1,1,0,0,1,0-2H4a1,1,0,0,1,0,2ZM17.66,7.34A1,1,0,0,1,17,7.05a1,1,0,0,1,0-1.42l.7-.7a1,1,0,1,1,1.42,1.42l-.7.7A1,1,0,0,1,17.66,7.34Zm-11.32,0a1,1,0,0,1-.71-.29l-.7-.7A1,1,0,0,1,6.35,4.93l.7.7a1,1,0,0,1,0,1.42A1,1,0,0,1,6.34,7.34ZM12,5a1,1,0,0,1-1-1V3a1,1,0,0,1,2,0V4A1,1,0,0,1,12,5Z" style="fill: rgb(44, 169, 188);"></path></svg>