<?xml version="1.0" encoding="utf-8"?><!-- Uploaded to: SVG Repo, www.svgrepo.com, Generator: SVG Repo Mixer Tools -->
<svg fill="#1C274C" width="800px" height="800px" viewBox="0 0 24 24" id="sunrise" data-name="Flat Color" xmlns="http://www.w3.org/2000/svg" class="icon flat-color"><path id="primary" d="M12,10a7,7,0,0,0-7,7,1,1,0,0,0,1,1H18a1,1,0,0,0,1-1A7,7,0,0,0,12,10Z" style="fill: #1C274C;"></path><path id="secondary" d="M22,17a1,1,0,0,1-1,1H3a1,1,0,0,1,0-2H21A1,1,0,0,1,22,17Zm-4,3H6a1,1,0,0,0,0,2H18a1,1,0,0,0,0-2ZM11.29,7.71a1,1,0,0,0,1.42,0l2-2a1,1,0,1,0-1.42-1.42l-.29.3V3a1,1,0,0,0-2,0V4.59l-.29-.3A1,1,0,0,0,9.29,5.71Z" style="fill: rgb(44, 169, 188);"></path></svg> 